<svg width="20" height="20" viewBox="0 0 20 20" fill="none" xmlns="http://www.w3.org/2000/svg">
<path d="M15.8333 7.2583L11.3891 3.80164C10.9991 3.49823 10.5191 3.3335 10.0249 3.3335C9.53081 3.3335 9.05079 3.49823 8.66078 3.80164L4.21578 7.2583C3.94865 7.46604 3.73252 7.73208 3.58391 8.03609C3.43529 8.34011 3.35812 8.67407 3.35828 9.01247V15.0125C3.35828 15.4545 3.53387 15.8784 3.84643 16.191C4.15899 16.5035 4.58292 16.6791 5.02494 16.6791H15.0249C15.467 16.6791 15.8909 16.5035 16.2035 16.191C16.516 15.8784 16.6916 15.4545 16.6916 15.0125V9.01247C16.6916 8.32664 16.3749 7.67914 15.8333 7.2583Z" stroke="white" stroke-linecap="round" stroke-linejoin="round"/>
<path d="M13.3333 12.5C11.4916 13.6108 8.50663 13.6108 6.66663 12.5" stroke="white" stroke-linecap="round" stroke-linejoin="round"/>
</svg>
