<svg width="25" height="25" viewBox="0 0 25 25" fill="none" xmlns="http://www.w3.org/2000/svg">
<path d="M7.29167 11.4587V19.792C7.29167 20.0683 7.18192 20.3332 6.98657 20.5286C6.79122 20.7239 6.52627 20.8337 6.25 20.8337H4.16667C3.8904 20.8337 3.62545 20.7239 3.4301 20.5286C3.23475 20.3332 3.125 20.0683 3.125 19.792V12.5003C3.125 12.2241 3.23475 11.9591 3.4301 11.7638C3.62545 11.5684 3.8904 11.4587 4.16667 11.4587H7.29167ZM7.29167 11.4587C8.39674 11.4587 9.45654 11.0197 10.2379 10.2383C11.0193 9.45687 11.4583 8.39706 11.4583 7.29199V6.25033C11.4583 5.69779 11.6778 5.16789 12.0685 4.77719C12.4592 4.38649 12.9891 4.16699 13.5417 4.16699C14.0942 4.16699 14.6241 4.38649 15.0148 4.77719C15.4055 5.16789 15.625 5.69779 15.625 6.25033V11.4587H18.75C19.3025 11.4587 19.8324 11.6782 20.2231 12.0689C20.6138 12.4596 20.8333 12.9895 20.8333 13.542L19.7917 18.7503C19.6419 19.3894 19.3577 19.9381 18.9819 20.3138C18.6062 20.6896 18.1592 20.872 17.7083 20.8337H10.4167C9.58787 20.8337 8.79301 20.5044 8.20696 19.9184C7.62091 19.3323 7.29167 18.5375 7.29167 17.7087" stroke="white" stroke-width="2" stroke-linecap="round" stroke-linejoin="round"/>
</svg>
