<svg width="20" height="20" viewBox="0 0 20 20" fill="none" xmlns="http://www.w3.org/2000/svg">
<path d="M10 17.5C14.1421 17.5 17.5 14.1421 17.5 10C17.5 5.85786 14.1421 2.5 10 2.5C5.85786 2.5 2.5 5.85786 2.5 10C2.5 14.1421 5.85786 17.5 10 17.5Z" stroke="#2D2D5F" stroke-linecap="round" stroke-linejoin="round"/>
<path d="M10 10.8335C11.3807 10.8335 12.5 9.71421 12.5 8.3335C12.5 6.95278 11.3807 5.8335 10 5.8335C8.61929 5.8335 7.5 6.95278 7.5 8.3335C7.5 9.71421 8.61929 10.8335 10 10.8335Z" stroke="#2D2D5F" stroke-linecap="round" stroke-linejoin="round"/>
<path d="M5.14001 15.7077C5.34627 15.0212 5.76832 14.4195 6.34355 13.9918C6.91879 13.5641 7.61655 13.3333 8.33335 13.3335H11.6667C12.3844 13.3332 13.083 13.5647 13.6587 13.9933C14.2343 14.422 14.6562 15.025 14.8617 15.7127" stroke="#2D2D5F" stroke-linecap="round" stroke-linejoin="round"/>
</svg>
